:SAMPLES-PER-SECOND 30
:FULLY-SPECIFIED
:DEGREES
373
root  33.4783 33.1045 -68.1959 5.28087 -14.0142 -1.29356
RightUpLeg  -14.185 -15.4157 -2.5717
RightLeg  17.7282 -6.27243 -1.56483
RightFoot  3.90846 0.029256 -0.453029
RightToes  -31.5232 -0.15455 -0.262412
Spine  4.60844 -2.36972 1.16545
Spine1  8.34587 -5.06603 1.92532
HEad  14.556 13.7164 5.49636
LeftShoulder1  0 -2.42657e-020 -4.95415e-022
LeftArm  -31.046 4.73483 -89.1743
LeftForeArm  57.7286 -16.4942 -2.94794
LeftHand  0.252742 -10.1207 -3.22578
RightShoulder  0 2.42657e-020 1.07489e-018
RightArm  -45.5265 -11.5628 79.5799
RightForeArm  48.0523 19.0767 3.46935
RightHand  -1.38495 21.7399 -6.83511
LeftUpLeg  -7.90923 -0.374774 13.8953
LeftLeg  22.7392 0.0496598 0.0144384
LeftFoot  -0.80935 -0.00197353 -0.279425
LeftToes  -18.9462 8.72033e-007 1.17809e-007
374
root  34.2108 32.9765 -68.2183 5.67543 -13.6081 -1.74145
RightUpLeg  -15.1451 -15.805 -3.17584
RightLeg  18.4509 -6.20807 -1.63237
RightFoot  4.53354 0.0355821 -0.521271
RightToes  -32.9396 -0.164678 -0.271869
Spine  4.67631 -2.44919 1.19961
Spine1  8.45016 -5.26474 2.03074
HEad  13.5162 12.4086 6.44963
LeftShoulder1  0 -2.42657e-020 -4.95415e-022
LeftArm  -29.5076 3.95668 -89.5779
LeftForeArm  57.217 -17.0083 -3.0477
LeftHand  0.259063 -10.1712 -3.28256
RightShoulder  0 2.42657e-020 1.07489e-018
RightArm  -45.8695 -11.4309 79.5069
RightForeArm  47.9734 19.1644 3.48681
RightHand  -1.41165 21.6486 -7.00533
LeftUpLeg  -8.58138 -2.51825 14.318
LeftLeg  23.2149 -2.38125 -0.847266
LeftFoot  -1.07245 -0.00226557 -0.242079
LeftToes  -28.8969 8.72033e-007 1.17809e-007
375
root  35.0462 32.8326 -68.2765 6.3217 -13.6478 -2.03243
RightUpLeg  -16.7189 -15.3629 -3.99008
RightLeg  19.4226 -6.51197 -1.83052
RightFoot  5.37244 0.0482451 -0.65063
RightToes  -34.6576 -0.177274 -0.282999
Spine  4.67597 -2.39062 1.18357
Spine1  8.43935 -5.1701 2.03992
HEad  12.4705 11.1887 7.34947
LeftShoulder1  0 -2.42657e-020 -4.95415e-022
LeftArm  -27.9998 3.35861 -90.0915
LeftForeArm  56.5826 -17.6797 -3.17878
LeftHand  0.249432 -10.1824 -3.17124
RightShoulder  0 2.42657e-020 1.07489e-018
RightArm  -46.3567 -11.1185 79.4768
RightForeArm  48.2724 19.0495 3.46361
RightHand  -1.52339 21.5268 -7.63339
LeftUpLeg  -9.67925 -3.04636 14.162
LeftLeg  23.6926 -4.64634 -1.69261
LeftFoot  -2.21691 -0.00191235 -0.0988452
LeftToes  -35.0692 8.72033e-007 1.17809e-007
376
root  35.9591 32.6981 -68.3159 6.55828 -14.0345 -1.93672
RightUpLeg  -17.9177 -14.463 -5.41056
RightLeg  20.1655 -6.96516 -2.05488
RightFoot  6.41811 0.0677027 -0.829843
RightToes  -35.825 -0.18602 -0.290344
Spine  4.84379 -2.35011 1.00572
Spine1  8.76463 -5.0873 1.69942
HEad  11.3331 10.357 8.24912
LeftShoulder1  0 -2.42657e-020 -4.95415e-022
LeftArm  -26.8372 2.90339 -90.4132
LeftForeArm  55.6571 -18.4569 -3.33214
LeftHand  0.240752 -10.2063 -3.06742
RightShoulder  0 2.42657e-020 1.07489e-018
RightArm  -46.8193 -10.4432 79.8025
RightForeArm  48.3349 19.0576 3.4651
RightHand  -1.58174 21.2288 -8.0579
LeftUpLeg  -10.3809 -1.11369 12.9793
LeftLeg  24.3359 -6.44067 -2.42418
LeftFoot  -4.61173 0.0107598 0.267204
LeftToes  -34.4139 8.72033e-007 1.17809e-007
377
root  36.9399 32.5974 -68.3555 6.71474 -14.4859 -1.44284
RightUpLeg  -18.708 -13.6236 -7.31186
RightLeg  19.9479 -7.35793 -2.13954
RightFoot  7.97146 0.101488 -1.07884
RightToes  -36.7441 -0.19301 -0.296001
Spine  5.02795 -2.39727 0.702573
Spine1  9.12029 -5.17726 1.13549
HEad  10.2419 9.6972 9.08944
LeftShoulder1  0 -2.42657e-020 -4.95415e-022
LeftArm  -26.3784 2.42005 -90.6528
LeftForeArm  55.1526 -18.7095 -3.38269
LeftHand  0.22592 -10.217 -2.89864
RightShoulder  0 2.42657e-020 1.07489e-018
RightArm  -47.1845 -9.75734 80.4571
RightForeArm  47.964 19.3221 3.51804
RightHand  -1.5505 21.0295 -7.97186
LeftUpLeg  -10.9852 1.26464 10.8281
LeftLeg  24.5696 -6.97509 -2.6563
LeftFoot  -6.688 0.0347322 0.594408
LeftToes  -31.4655 8.72033e-007 1.17809e-007
378
root  37.9053 32.5543 -68.409 6.9029 -14.8352 -0.700489
RightUpLeg  -18.973 -12.7311 -9.42375
RightLeg  18.5493 -7.89066 -2.08596
RightFoot  9.92854 0.156 -1.4182
RightToes  -37.2871 -0.197182 -0.29929
Spine  5.18974 -2.49645 0.279491
Spine1  9.44145 -5.37612 0.382102
HEad  9.31707 8.9698 9.9379
LeftShoulder1  0 -2.42657e-020 -4.95415e-022
LeftArm  -26.2887 1.76218 -90.5773
LeftForeArm  55.124 -18.2847 -3.29951
LeftHand  0.21568 -10.1796 -2.79301
RightShoulder  0 2.42657e-020 1.07489e-018
RightArm  -47.5703 -9.26695 81.6674
RightForeArm  47.5094 19.6937 3.59255
RightHand  -1.53302 21.0802 -7.85792
LeftUpLeg  -12.1096 1.43263 8.55663
LeftLeg  25.3811 -6.88831 -2.73546
LeftFoot  -7.75861 0.0501499 0.739542
LeftToes  -29.6766 8.72033e-007 1.17809e-007
379
root  38.6987 32.5821 -68.465 7.17658 -15.3128 -0.51404
RightUpLeg  -18.7763 -11.2873 -10.5354
RightLeg  16.3659 -9.41247 -2.1053
RightFoot  11.3919 0.229019 -1.91815
RightToes  -33.0021 -0.165131 -0.27228
Spine  5.3628 -2.45129 -0.0280456
Spine1  9.76791 -5.31389 -0.0959217
HEad  8.74255 8.05932 10.8882
LeftShoulder1  0 -2.42657e-020 -4.95415e-022
LeftArm  -26.3706 0.950657 -90.1728
LeftForeArm  55.771 -17.2546 -3.09816
LeftHand  0.253702 -10.1749 -3.22128
RightShoulder  0 2.42657e-020 1.07489e-018
RightArm  -47.6056 -9.1964 83.2904
RightForeArm  46.8934 20.1775 3.69014
RightHand  -1.53616 20.9032 -7.94591
LeftUpLeg  -13.5529 2.99308 7.1592
LeftLeg  26.9931 -7.80297 -3.35137
LeftFoot  -8.21419 0.0686582 0.956139
LeftToes  -28.6087 8.72033e-007 1.17809e-007
380
root  39.348 32.6388 -68.4801 7.38073 -16.1201 -0.64556
RightUpLeg  -18.8169 -12.1881 -10.4706
RightLeg  15.2632 -8.95105 -1.82352
RightFoot  12.1976 0.24791 -1.94225
RightToes  -31.4632 -0.154125 -0.262006
Spine  5.44646 -2.2181 -0.291279
Spine1  9.94062 -4.86771 -0.473735
HEad  8.95139 6.91513 11.4777
LeftShoulder1  0 -2.42657e-020 -4.95415e-022
LeftArm  -27.1243 0.302427 -89.5254
LeftForeArm  57.3805 -15.7607 -2.8088
LeftHand  0.259303 -10.0908 -3.30862
RightShoulder  0 2.42657e-020 1.07489e-018
RightArm  -47.1659 -9.61028 85.0633
RightForeArm  45.7926 20.4845 3.7535
RightHand  -1.52378 20.7313 -7.94881
LeftUpLeg  -14.046 4.15459 6.19654
LeftLeg  27.4237 -8.14758 -3.57027
LeftFoot  -8.48176 0.0794551 1.07146
LeftToes  -27.2283 8.72033e-007 1.17809e-007
381
root  39.8567 32.7164 -68.4865 7.60726 -16.9159 -0.910147
RightUpLeg  -19.4286 -14.6763 -9.37037
RightLeg  16.9984 -6.5568 -1.54691
RightFoot  11.4187 0.17125 -1.33512
RightToes  -36.3555 -0.190044 -0.293623
Spine  5.43396 -2.02044 -0.415716
Spine1  9.93101 -4.45008 -0.663316
HEad  9.52045 6.10019 11.5476
LeftShoulder1  0 -2.42657e-020 -4.95415e-022
LeftArm  -29.4028 0.152826 -88.916
LeftForeArm  59.7055 -14.3135 -2.53092
LeftHand  0.227848 -9.76703 -3.03836
RightShoulder  0 2.42657e-020 1.07489e-018
RightArm  -45.8808 -10.0929 86.4191
RightForeArm  43.6717 20.6808 3.79613
RightHand  -1.35314 20.838 -6.98124
LeftUpLeg  -14.2497 4.33003 5.48129
LeftLeg  27.3587 -7.47158 -3.2667
LeftFoot  -8.56921 0.0749206 0.999971
LeftToes  -25.5378 8.72033e-007 1.17809e-007
382
root  40.2175 32.8279 -68.5068 7.88465 -17.4387 -1.48241
RightUpLeg  -19.6147 -15.3064 -7.78636
RightLeg  19.9357 -5.20375 -1.51503
RightFoot  7.66764 0.072229 -0.700194
RightToes  -34.3192 -0.174766 -0.280836
Spine  5.39343 -1.93773 -0.380772
Spine1  9.86689 -4.20013 -0.687039
HEad  9.9615 5.80106 11.7374
LeftShoulder1  0 -2.42657e-020 -4.95415e-022
LeftArm  -32.9646 0.597754 -88.1801
LeftForeArm  61.5462 -13.2626 -2.33099
LeftHand  0.172259 -9.41046 -2.46441
RightShoulder  0 2.42657e-020 1.07489e-018
RightArm  -45.0448 -10.3717 87.5271
RightForeArm  42.6858 20.8881 3.83938
RightHand  -1.12158 21.1405 -5.63671
LeftUpLeg  -14.2571 4.61544 5.35035
LeftLeg  26.9508 -7.16786 -3.07464
LeftFoot  -8.38082 0.0692883 0.945663
LeftToes  -24.0885 8.72033e-007 1.17809e-007
